
<svg xmlns="http://www.w3.org/2000/svg" version="1.1" xmlns:xlink="http://www.w3.org/1999/xlink" preserveAspectRatio="none" x="0px" y="0px" width="800px" height="800px" viewBox="0 0 800 800">
<defs>
<g id="Layer2_0_FILL">
<path fill="#58C3BD" stroke="none" d="
M 0 0
L 0 800 800 800 800 0 0 0 Z"/>
</g>

<g id="Layer1_0_FILL">
<path fill="#FFCA1A" stroke="none" d="
M 603.15 706.4
L 576.55 706.4 537.95 706.4 520.2 800 571.85 800 586 762.4 593 762.4 607.2 800 660.15 800
Q 649.7169921875 753.92578125 640.05 706.4
L 603.15 706.4
M 200.9 706.4
L 164.1 706.4
Q 154.4330078125 753.92578125 144 800
L 196.9 800 211.1 762.4 218.1 762.4 232.25 800 283.9 800 266.15 706.4 227.6 706.4 200.9 706.4
M 170.8 583.05
L 166.9 562.35 140.55 562.35 146.7 594.7 164.1 686.4 200.9 686.4 227.6 686.4 262.4 686.4 244.75 593.45 238.85 562.35 218.3 562.35 222.15 583.05
Q 224.1 593.7 218 601.15 211.9 608.75 201.25 608.75 190.6 608.75 181.75 601.15 172.8 593.7 170.8 583.05
M 657.35 594.7
L 663.5 562.35 637.15 562.35 633.3 583.05
Q 631.3 593.7 622.35 601.15 613.5 608.75 602.85 608.75 592.15 608.75 586.05 601.15 579.95 593.7 582 583.05
L 585.85 562.35 565.2 562.35 559.3 593.45 541.7 686.4 576.55 686.4 603.15 686.4 640.05 686.4 657.35 594.7 Z"/>

<path fill="#FFFFFF" stroke="none" d="
M 0 558.5
L 0 581.05 146.7 594.7 140.55 562.35 0.9 562.35
Q 0.9 560.241015625 0 558.5
M 800 581.4
L 800 562.35 663.5 562.35 657.35 594.7 800 581.4
M 190.6 445.3
Q 190.4 445.3 190.2 445.3 190.05 445.25 189.9 445.3
L 159.95 441.65 164.95 448.8 140.55 453.5 140.6 453.55 151.05 465.9
Q 150.6 466.7 150.15 467.4 141.55 482.85 146.45 499.9 151.15 516.5 166 525.05 167.15 525.65 168.3 526.25 171.7 527.7 175.3 528.65
L 175.3 562.35 166.9 562.35 170.8 583.05
Q 172.8 593.7 181.75 601.15 190.6 608.75 201.25 608.75 211.9 608.75 218 601.15 224.1 593.7 222.15 583.05
L 218.3 562.35 210.1 562.35 210.1 547.25 236.05 539.75 232.35 523.85
Q 225.051953125 525.358984375 222.3 525.45
L 222.25 525.45
Q 215.9255859375 525.6703125 210.05 522.6
L 212.2 518.45
Q 216.9626953125 520.9236328125 222.1 520.75 224.6271484375 520.6419921875 231.3 519.25
L 229.5 511.45 238.6 508.85
Q 237.15 499.25 234.3 490 232.65 484.75 232.05 483 231.9 482.6 231.75 482.15 230.45 478.65 228.85 475.1 224.7 465.9 220.45 460.6 215.6 454.7 208.3 450.7 199.7 445.95 190.6 445.3
M 216.05 494.15
Q 216.75 492.95 218.1 492.5 219.4 492.15 220.65 492.8 221.8 493.55 222.2 494.85 222.6 496.25 221.9 497.4 221.25 498.6 219.95 499 218.55 499.35 217.4 498.65 216.15 498 215.8 496.65 215.4 495.35 216.05 494.15
M 653.05 465.9
L 663.5 453.55 663.5 453.5 639.15 448.8 644.1 441.65 614.15 445.3
Q 614.05 445.25 613.9 445.3 613.7 445.3 613.5 445.3 604.4 445.95 595.75 450.7 588.55 454.7 583.7 460.6 579.35 465.9 575.25 475.1 573.4 479.1 572 483 571.45 484.75 569.8 490 566.9 499.25 565.45 508.85
L 574.55 511.45 572.75 519.25
Q 579.4658203125 520.6416015625 581.95 520.75 587.0900390625 520.9123046875 591.85 518.45
L 594 522.65
Q 588.121484375 525.6818359375 581.75 525.45
L 581.75 525.45
Q 579.0490234375 525.358984375 571.7 523.85
L 571.95 522.75 568.05 539.75 594.05 547.25 594.05 562.35 585.85 562.35 582 583.05
Q 579.95 593.7 586.05 601.15 592.15 608.75 602.85 608.75 613.5 608.75 622.35 601.15 631.3 593.7 633.3 583.05
L 637.15 562.35 628.8 562.35 628.8 528.65
Q 632.45 527.7 635.8 526.25 636.9 525.65 638.1 525.05 652.95 516.5 657.65 499.9 662.55 482.85 653.95 467.4 653.5 466.7 653.05 465.9
M 586 492.5
Q 587.3 492.95 588.05 494.15 588.65 495.35 588.3 496.65 587.95 498 586.7 498.65 585.5 499.35 584.15 499 582.85 498.6 582.2 497.4 581.5 496.25 581.85 494.85 582.25 493.55 583.45 492.8 584.75 492.15 586 492.5
M 603.15 686.4
L 576.55 686.4 576.55 706.4 603.15 706.4 603.15 686.4
M 227.6 686.4
L 200.9 686.4 200.9 706.4 227.6 706.4 227.6 686.4
M 238.85 562.35
L 244.75 593.45 384.4 580.5 402.05 586.8 419.65 580.5 419.3 580.45 559.3 593.45 565.2 562.35 426.75 562.35
Q 426.75 558.8 424.25 556.3 423.65 555.7 422.95 555.25 422.9 555.15 422.8 555.15
L 411.05 546.9 402.05 551.55 393.05 546.9 381.25 555.15
Q 381.2 555.15 381.15 555.25 380.45 555.7 379.85 556.3 377.3 558.8 377.3 562.35
L 238.85 562.35 Z"/>

<path fill="#FD633D" stroke="none" d="
M 576.55 706.4
L 576.55 686.4 541.7 686.4 537.95 706.4 576.55 706.4
M 640.05 686.4
L 603.15 686.4 603.15 706.4 640.05 706.4 640.05 686.4
M 262.4 686.4
L 227.6 686.4 227.6 706.4 266.15 706.4 262.4 686.4
M 200.9 686.4
L 164.1 686.4 164.1 706.4 200.9 706.4 200.9 686.4 Z"/>

<path fill="#101356" stroke="none" d="
M 572.75 519.25
Q 572.7150390625 519.258203125 572.65 519.25
L 571.95 522.75 571.7 523.85
Q 579.0490234375 525.358984375 581.75 525.45
L 581.75 525.45
Q 588.121484375 525.6818359375 594 522.65
L 591.85 518.45
Q 587.0900390625 520.9123046875 581.95 520.75 579.4658203125 520.6416015625 572.75 519.25
M 231.4 519.25
Q 231.369140625 519.2615234375 231.3 519.25 224.6271484375 520.6419921875 222.1 520.75 216.9626953125 520.9236328125 212.2 518.45
L 210.05 522.6
Q 215.9255859375 525.6703125 222.25 525.45
L 222.3 525.45
Q 225.051953125 525.358984375 232.35 523.85
L 231.4 519.25
M 218.1 492.5
Q 216.75 492.95 216.05 494.15 215.4 495.35 215.8 496.65 216.15 498 217.4 498.65 218.55 499.35 219.95 499 221.25 498.6 221.9 497.4 222.6 496.25 222.2 494.85 221.8 493.55 220.65 492.8 219.4 492.15 218.1 492.5
M 588.05 494.15
Q 587.3 492.95 586 492.5 584.75 492.15 583.45 492.8 582.25 493.55 581.85 494.85 581.5 496.25 582.2 497.4 582.85 498.6 584.15 499 585.5 499.35 586.7 498.65 587.95 498 588.3 496.65 588.65 495.35 588.05 494.15 Z"/>

<path fill="#669933" stroke="none" d="
M 656.8 685.65
L 656.55 685.65 656.5 686.4 656.75 686.4 656.8 685.65
M 147.5 685.6
L 147.25 685.65 147.3 686.4 147.55 686.35 147.5 685.6 Z"/>
</g>

<g id="Layer0_0_FILL">
<path fill="#101356" stroke="none" d="
M 383.85 133.05
L 382.9 137.65
Q 389.69609375 139.05859375 392.3 139.15
L 392.3 139.15
Q 398.1548828125 139.325 403.65 136.55
L 401.55 132.35
Q 397.15703125 134.56875 392.5 134.45 390.1224609375 134.3419921875 383.95 133.05 383.923046875 133.0599609375 383.85 133.05
M 398.3 112.3
Q 398.65 111.1 398.1 110 397.45 108.9 396.2 108.45 395 108.15 393.85 108.75 392.75 109.4 392.4 110.65 392 111.9 392.65 113 393.25 114.1 394.5 114.45 395.75 114.8 396.8 114.15 398 113.55 398.3 112.3 Z"/>

<path fill="#FFFFFF" stroke="none" d="
M 421.65 64.75
Q 413.25 65.35 405.25 69.75 398.5 73.45 394.05 78.9 390.05 83.8 386.25 92.35 384.55 96.05 383.25 99.65 382.7 101.3 381.2 106.15 378.5 114.7 377.2 123.6
L 385.6 126 383.95 133.05
Q 390.1224609375 134.3419921875 392.5 134.45 397.15703125 134.56875 401.55 132.35
L 403.65 136.55
Q 398.1548828125 139.325 392.3 139.15
L 392.3 139.15
Q 389.69609375 139.05859375 382.9 137.65
L 379.55 152.25 403.6 159.15 403.6 173.2 396 173.2 392.45 192.35
Q 390.6 202.15 396.25 209.1 401.9 216.1 411.8 216.1 421.65 216.1 429.85 209.1 438.15 202.15 440 192.35
L 443.6 173.2 435.85 173.2 435.85 141.95
Q 439.2 141.1 442.3 139.7 442.95 139.4 443.65 139.05 444.05 138.85 444.45 138.65 458.2 130.65 462.55 115.35 467.05 99.55 459.1 85.2 458.7 84.55 458.3 83.85
L 467.95 72.4 468 72.35 445.4 68 450 61.35 422.3 64.75
Q 422.15 64.7 422 64.75 421.85 64.75 421.65 64.75
M 398.1 110
Q 398.65 111.1 398.3 112.3 398 113.55 396.8 114.15 395.75 114.8 394.5 114.45 393.25 114.1 392.65 113 392 111.9 392.4 110.65 392.75 109.4 393.85 108.75 395 108.15 396.2 108.45 397.45 108.9 398.1 110
M 371.5 201.95
L 376.95 173.2 248.7 173.2
Q 248.7 169.85 246.4 167.55 244.1 165.3 240.95 165.2
L 215.35 165.2
Q 215.35 168.55 217.7 170.9 219.95 173.15 223.1 173.2
L 194.7 173.2
Q 194.1 173.2 193.5 173.3 192.55 173.5 191.65 173.95 190.9 174.4 190.2 175.1 189.35 175.95 188.85 176.95 188.45 176.95 188.05 177 187.95 177 187.8 177 186.8 177.2 185.95 177.65 185.15 178.1 184.45 178.8 182.6 180.65 182.6 183.35
L 191 183.35
Q 190.75 184.2 190.75 185.15
L 371.5 201.95
M 412.1 288.05
L 387.4 288.05 387.4 306.55 412.1 306.55 412.1 288.05
M 663.5 183.35
Q 663.5 180.65 661.6 178.8 660.95 178.1 660.1 177.65 659.25 177.2 658.3 177 657.8 176.95 657.2 176.95 656.75 175.95 655.9 175.1 655.2 174.4 654.4 173.95 653.55 173.5 652.55 173.3 652 173.2 651.4 173.2
L 623.1 173.2
Q 626.2 173.1 628.4 170.9 630.75 168.55 630.75 165.2
L 605.15 165.2
Q 601.95 165.3 599.7 167.55 597.35 169.85 597.35 173.2
L 468 173.2 462.3 203.15 655.3 185.15
Q 655.3 184.2 655.05 183.35
L 663.5 183.35 Z"/>

<path fill="#FFCA1A" stroke="none" d="
M 387.4 306.55
L 351.7 306.55 309.3 530.5 254.5 562.35 339.05 562.35 331.65 536.3 398.7 358.45 405.2 358.45 472.25 536.3 464.85 562.35 549.5 562.35 496.4 531.5
Q 493.55 519.85 490.75 508.15 471.25 426.6 453.5 341.8 449.85 324.25 446.2 306.55
L 412.1 306.55 387.4 306.55
M 392.45 192.35
L 396 173.2 376.95 173.2 371.5 201.95 355.15 288.05 387.4 288.05 412.1 288.05 446.2 288.05 462.3 203.15 468 173.2 443.6 173.2 440 192.35
Q 438.15 202.15 429.85 209.1 421.65 216.1 411.8 216.1 401.9 216.1 396.25 209.1 390.6 202.15 392.45 192.35 Z"/>

<path fill="#FD633D" stroke="none" d="
M 387.4 288.05
L 355.15 288.05 351.65 306.55 351.7 306.55 387.4 306.55 387.4 288.05
M 446.2 288.05
L 412.1 288.05 412.1 306.55 446.2 306.55 446.2 288.05 Z"/>
</g>
</defs>

<g transform="matrix( 1, 0, 0, 1, 0,0) ">
<use xlink:href="#Layer2_0_FILL"/>
</g>

<g transform="matrix( 1, 0, 0, 1, 0,0) ">
<use xlink:href="#Layer1_0_FILL"/>
</g>

<g transform="matrix( 1, 0, 0, 1, 0,0) ">
<use xlink:href="#Layer0_0_FILL"/>
</g>
</svg>
