
<svg xmlns="http://www.w3.org/2000/svg" version="1.1" xmlns:xlink="http://www.w3.org/1999/xlink" preserveAspectRatio="none" x="0px" y="0px" width="800px" height="800px" viewBox="0 0 800 800">
<defs>
<g id="Layer1_0_FILL">
<path fill="#FD633D" stroke="none" d="
M 800 0
L 0 0 0 800 800 800 800 0 Z"/>
</g>

<g id="Layer0_0_FILL">
<path fill="#FFCA1A" stroke="none" d="
M 334.6 557.9
L 328.3 554.05 282.1 624.3
Q 177.0263671875 647.002734375 130.75 800
L 508.2 800
Q 496.6759765625 757.80078125 475.45 719.05
L 510.5 665.95 486.35 651 334.6 557.9 Z"/>

<path fill="#FFFFFF" stroke="none" d="
M 671.2 427.2
Q 666.35 380.85 654.45 335.75 647.45 309.9 644.95 301.25 638.95 282.15 631.35 262.45 613.25 216.95 593.65 190.65 571.85 161.45 537.5 140.4 498.3 116.55 456.15 111.1 439.3 108.9 421.95 109.8 416.85 110.1 411.95 110.6
L 267.55 111.95 291.9 160 162.65 188.35 230 260.95
Q 215.55 310.7 228.45 364.6 232.1 379.35 237.3 393 259.25 450.5 311.5 486.2
L 319.7 491.7
Q 320.7 492.3 321.65 492.85 322.45 493.4 323.15 493.85 325.6 495.4 328.2 496.85 336.2 501.35 344.55 505.2
L 334.6 557.9 486.35 651 493.35 613.95 649.25 560.6 626.8 437.85 671.2 427.2
M 563.7 363.75
Q 562.15 357.35 565.55 351.8 569 346 575.6 344.55 582.1 342.9 587.65 346.5 593.45 349.85 595 356.25 596.5 362.75 592.95 368.5 589.65 374.1 583.1 375.7 576.5 377.25 570.85 373.8 565.2 370.25 563.7 363.75 Z"/>

<path fill="#101356" stroke="none" d="
M 565.55 351.8
Q 562.15 357.35 563.7 363.75 565.2 370.25 570.85 373.8 576.5 377.25 583.1 375.7 589.65 374.1 592.95 368.5 596.5 362.75 595 356.25 593.45 349.85 587.65 346.5 582.1 342.9 575.6 344.55 569 346 565.55 351.8 Z"/>
</g>
</defs>

<g transform="matrix( 1, 0, 0, 1, 0,0) ">
<use xlink:href="#Layer1_0_FILL"/>
</g>

<g transform="matrix( 1, 0, 0, 1, 0,0) ">
<use xlink:href="#Layer0_0_FILL"/>
</g>
</svg>
